<mxfile host="app.diagrams.net" modified="2024-01-04T20:07:08.574Z" agent="Mozilla/5.0 (Windows NT 10.0; Win64; x64) AppleWebKit/537.36 (KHTML, like Gecko) Chrome/120.0.0.0 Safari/537.36" version="22.1.16" etag="b90K0OWQgoMy1iOuSdZ7" type="github">
  <diagram name="Page-1" id="Odow1r1eFZjRUvcj_1Ps">
    <mxGraphModel>
      <root>
        <mxCell id="0" />
        <mxCell id="1" parent="0" />
      </root>
    </mxGraphModel>
  </diagram>
</mxfile>
